<?xml version="1.0" encoding="UTF-8" standalone="no"?>
<!-- Created with Inkscape (http://www.inkscape.org/) -->

<svg
   xmlns:dc="http://purl.org/dc/elements/1.1/"
   xmlns:cc="http://creativecommons.org/ns#"
   xmlns:rdf="http://www.w3.org/1999/02/22-rdf-syntax-ns#"
   xmlns:svg="http://www.w3.org/2000/svg"
   xmlns="http://www.w3.org/2000/svg"
   xmlns:sodipodi="http://sodipodi.sourceforge.net/DTD/sodipodi-0.dtd"
   xmlns:inkscape="http://www.inkscape.org/namespaces/inkscape"
   width="210mm"
   height="297mm"
   id="svg2"
   version="1.1"
   inkscape:version="0.48.5 r10040"
   sodipodi:docname="icon.svg">
  <defs
     id="defs4">
    <clipPath
       clipPathUnits="userSpaceOnUse"
       id="clipPath3837">
      <rect
         style="fill:#8e0000;fill-opacity:1;stroke:none"
         id="rect3839"
         width="740"
         height="740"
         x="25.086637"
         y="162.27553" />
    </clipPath>
  </defs>
  <sodipodi:namedview
     id="base"
     pagecolor="#ffffff"
     bordercolor="#666666"
     borderopacity="1.0"
     inkscape:pageopacity="0.0"
     inkscape:pageshadow="2"
     inkscape:zoom="0.175"
     inkscape:cx="236.48851"
     inkscape:cy="632.66914"
     inkscape:document-units="px"
     inkscape:current-layer="layer1"
     showgrid="false"
     inkscape:object-paths="false"
     inkscape:snap-bbox="true"
     inkscape:window-width="1920"
     inkscape:window-height="1018"
     inkscape:window-x="-8"
     inkscape:window-y="-8"
     inkscape:window-maximized="1"
     inkscape:bbox-paths="false" />
  <metadata
     id="metadata7">
    <rdf:RDF>
      <cc:Work
         rdf:about="">
        <dc:format>image/svg+xml</dc:format>
        <dc:type
           rdf:resource="http://purl.org/dc/dcmitype/StillImage" />
        <dc:title></dc:title>
      </cc:Work>
    </rdf:RDF>
  </metadata>
  <g
     inkscape:groupmode="layer"
     id="layer2"
     inkscape:label="Ebene">
    <rect
       style="fill:#006d8e;fill-opacity:1;stroke:none;stroke-opacity:1"
       id="rect3786"
       width="740"
       height="740"
       x="2.8571429"
       y="89.505043" />
    <path
       sodipodi:type="star"
       style="opacity:0.32996633;fill:#ffffff;fill-opacity:1;stroke:none"
       id="path3841"
       sodipodi:sides="5"
       sodipodi:cx="72.73098"
       sodipodi:cy="203.83405"
       sodipodi:r1="53.030602"
       sodipodi:r2="26.515303"
       sodipodi:arg1="0.70449406"
       sodipodi:arg2="1.3328126"
       inkscape:flatsided="false"
       inkscape:rounded="0"
       inkscape:randomized="0"
       d="m 113.13708,238.17923 -34.155286,-8.57721 -26.428854,23.27376 -2.397154,-35.13411 -30.301621,-17.94335 32.673763,-13.13687 7.701423,-34.36335 22.59065,27.01508 35.061359,-3.29437 -18.711971,29.8331 z"
       inkscape:transform-center-x="3.8632158"
       inkscape:transform-center-y="-1.2471088"
       transform="translate(32.324881,70.710678)" />
    <path
       sodipodi:type="star"
       style="opacity:0.49178449;fill:#ffffff;fill-opacity:1;stroke:none"
       id="path3843"
       sodipodi:sides="5"
       sodipodi:cx="682.8631"
       sodipodi:cy="141.20459"
       sodipodi:r1="20.800314"
       sodipodi:r2="10.400158"
       sodipodi:arg1="2.6344941"
       sodipodi:arg2="3.2628127"
       inkscape:flatsided="false"
       inkscape:rounded="0"
       inkscape:randomized="0"
       d="m 664.68035,151.30612 7.85891,-11.35915 -4.90206,-12.91366 13.23173,3.9641 10.76679,-8.65268 0.31875,13.8091 11.55631,7.566 -13.03473,4.5704 -3.62461,13.32872 -8.37465,-10.98443 z"
       inkscape:transform-center-x="-1.2324661"
       inkscape:transform-center-y="0.77725316"
       transform="translate(-155.71429,17.142857)" />
    <path
       sodipodi:type="star"
       style="opacity:0.49178449;fill:#ffffff;fill-opacity:1;stroke:none"
       id="path3845"
       sodipodi:sides="5"
       sodipodi:cx="682.8631"
       sodipodi:cy="409.90515"
       sodipodi:r1="79.513832"
       sodipodi:r2="39.75692"
       sodipodi:arg1="2.6665819"
       sodipodi:arg2="3.2949004"
       inkscape:flatsided="false"
       inkscape:rounded="0"
       inkscape:randomized="0"
       d="m 612.15242,446.27064 31.42005,-42.43668 -17.14581,-49.94111 50.06902,16.76859 42.19846,-31.73929 -0.4757,52.80025 43.2259,30.32515 -50.36302,15.86375 -15.48339,50.48126 -30.65035,-42.99591 z"
       inkscape:transform-center-x="-3.9352809"
       inkscape:transform-center-y="3.7522058"
       transform="translate(-36.018862,17.53154)" />
    <path
       sodipodi:type="arc"
       style="opacity:0.49178449;fill:#ffffff;fill-opacity:1;stroke:none"
       id="path3847"
       sodipodi:cx="175"
       sodipodi:cy="930.93359"
       sodipodi:rx="466.42856"
       sodipodi:ry="281.42856"
       d="m 641.42856,930.93359 a 466.42856,281.42856 0 1 1 -932.85712,0 466.42856,281.42856 0 1 1 932.85712,0 z" />
    <path
       style="opacity:0.19191918;fill:#ffffff;fill-opacity:1;stroke:none"
       d="m 2.0203051,692.74788 c 33.3350339,39.39595 59.5989999,39.39595 59.5989999,39.39595 0,0 78.242225,13.34735 74.201615,-0.79479 -4.04061,-14.14214 5.54096,-44.93692 27.76432,-38.87601 22.22335,6.06092 12.1813,26.53881 12.1813,26.53881 0,0 27.27412,33.33504 -5.05076,40.4061 -32.32488,7.07107 -72.730983,-10.10152 -101.015254,9.09138 -28.284272,19.1929 -25.253814,31.31473 -18.182746,40.4061 7.071068,9.09137 -2.020305,43.43656 -2.020305,43.43656 l -82.832509,5.05076 15.152288,-123.23861 z"
       id="path3849"
       inkscape:connector-curvature="0"
       sodipodi:nodetypes="ccsscssscccc" />
    <path
       style="fill:#ffffff;stroke:none;stroke-width:1px;stroke-linecap:butt;stroke-linejoin:miter;stroke-opacity:1;fill-opacity:1;opacity:0.192"
       d="m 263.64981,832.14893 c 0,0 37.37565,-26.26397 39.39595,-50.50763 2.02031,-24.24366 -18.18274,-51.51778 -18.18274,-51.51778 0,0 -19.1929,-24.24366 -1.01015,-32.32488 18.18274,-8.08122 0,11.11168 21.2132,18.18275 21.2132,7.07106 58.58885,19.19289 45.45686,2.0203 -13.13198,-17.17259 -37.37564,-32.32488 -37.37564,-32.32488 0,0 -5.05076,-25.25381 7.07107,-22.22336 12.12183,3.03046 40.4061,9.09138 40.4061,9.09138 l 55.55839,17.17259 42.42641,16.16244 c 0,0 -23.23351,2.0203 -27.27412,23.23351 -4.04061,21.2132 -10.10153,21.2132 8.08122,31.31473 18.18274,10.10152 12.12183,28.28427 12.12183,28.28427 0,0 -42.42641,28.28427 -55.55839,7.07107 -13.13199,-21.21321 -36.36549,-18.18275 -36.36549,-18.18275 0,0 -46.46702,33.33503 9.09137,59.599 55.55839,26.26397 -98.99495,8.08122 -98.99495,8.08122 z"
       id="path3851"
       inkscape:connector-curvature="0" />
    <path
       style="fill:#ffffff;stroke:none;stroke-width:1px;stroke-linecap:butt;stroke-linejoin:miter;stroke-opacity:1;fill-opacity:1;opacity:0.1986532"
       d="m 107.14286,833.79075 c 0,0 1.42857,-20 37.14285,-25.71428 35.71429,-5.71429 68.57143,7.14286 68.57143,7.14286 0,0 2.85715,25.71428 35.71429,25.71428 32.85714,0 -144.28572,14.28572 -144.28572,14.28572 z"
       id="path3853"
       inkscape:connector-curvature="0" />
    <path
       style="fill:#ffffff;stroke:none;stroke-width:1px;stroke-linecap:butt;stroke-linejoin:miter;stroke-opacity:1;fill-opacity:1;opacity:0.192"
       d="m 500.71429,833.07647 c 0,0 -3.57143,-21.42857 15,-25 18.57142,-3.57143 22.85714,-17.14286 37.85714,-5 15,12.14286 22.85714,-5 33.57143,17.85714 10.71428,22.85714 -36.42857,50 -36.42857,50 z"
       id="path3855"
       inkscape:connector-curvature="0" />
  </g>
  <g
     inkscape:groupmode="layer"
     id="layer3"
     inkscape:label="Ebene#1" />
  <g
     inkscape:label="Ebene 1"
     inkscape:groupmode="layer"
     id="layer1"
     style="display:inline">
    <path
       style="fill:#ffffff;fill-opacity:1;stroke:none"
       d="m 322,118.07647 c 0,0 -135,127.85714 -134.28571,292.85714 0.57059,131.80722 121.89159,177.82125 121.89159,177.82125 23.24641,-10.99405 49.03775,-9.26347 76.31834,-0.0866 0,0 96.11777,-62.61445 96.07578,-173.44888 C 481.94859,279.50317 399.14286,186.6479 322,118.07647 z"
       id="path2985"
       inkscape:connector-curvature="0"
       sodipodi:nodetypes="csccsc" />
    <path
       sodipodi:type="arc"
       style="fill:#006d8e;fill-opacity:1;stroke:none"
       id="path2987"
       sodipodi:cx="367.85715"
       sodipodi:cy="421.64789"
       sodipodi:rx="83.571426"
       sodipodi:ry="105"
       d="m 451.42857,421.64789 a 83.571426,105 0 1 1 -167.14285,0 83.571426,105 0 1 1 167.14285,0 z"
       transform="translate(-31.142855,-10.000003)" />
    <path
       style="fill:#ffffff;stroke:none;opacity:0.84175084"
       d="m 202.50508,475.89771 c 0,0 -157.647937,85.0359 -114.79079,242.17876 3.71373,-36.30135 80.03693,-148.48071 178.17096,-154.91334 -24.05439,-42.60832 -63.38017,-87.26542 -63.38017,-87.26542 z"
       id="path2989"
       inkscape:connector-curvature="0"
       sodipodi:nodetypes="cccc" />
    <path
       style="fill:#ffffff;stroke:none;opacity:0.84511785"
       d="m 472.90165,471.62995 c 0,0 160.86223,85.39304 118.00508,242.5359 -3.71373,-36.30135 -77.53693,-144.195 -175.67096,-150.62763 22.98296,-52.60832 57.66588,-91.90827 57.66588,-91.90827 z"
       id="path2989-1"
       inkscape:connector-curvature="0"
       sodipodi:nodetypes="cccc" />
    <path
       sodipodi:type="arc"
       style="fill:#ffffff;fill-opacity:1;stroke:none"
       id="path3011"
       sodipodi:cx="377.14285"
       sodipodi:cy="357.71933"
       sodipodi:rx="29.285715"
       sodipodi:ry="28.214285"
       d="m 406.42857,357.71933 a 29.285715,28.214285 0 1 1 -58.57143,0 29.285715,28.214285 0 1 1 58.57143,0 z"
       transform="translate(-41.571429,-2.8571429)" />
    <path
       style="fill:#ffffff;fill-opacity:1;stroke:none"
       d="m 306.28571,383.07647 c 22.23047,17.21795 45.72013,14.69888 57.85715,0 -6.42858,61.42857 -10.71429,105.71428 -10.71429,105.71428 l -27.14286,0 z"
       id="path3013"
       inkscape:connector-curvature="0"
       sodipodi:nodetypes="ccccc" />
    <path
       style="fill:#ff9700;fill-opacity:1;stroke:none"
       d="m 307.71429,608.07647 c -0.6125,36.47584 -13.36955,55.9493 -22.85715,80 12.24558,-9.95112 25.41199,-14.43528 34.28572,-32.85714 26.8657,55.65885 18.73226,104.31788 27.85714,156.42857 2.52994,-48.28854 1.10977,-99.86885 14.28571,-139.28572 13.87828,18.09524 21.63298,36.19048 30,54.28572 -3.87066,-30.65315 -11.90911,-57.13851 -10.71428,-92.85715 14.93829,-3.05103 32.63098,13.1788 49.28571,22.14286 -7.64183,-17.38095 -18.92018,-34.76191 -43.57143,-52.14286 -22.34109,-8.82515 -50.63025,-13.75864 -78.57142,4.28572 z"
       id="path3015"
       inkscape:connector-curvature="0"
       sodipodi:nodetypes="cccccccccc" />
  </g>
</svg>
